<svg width="15.000015" height="15" viewBox="0 0 25 23.958" fill="none" xmlns="http://www.w3.org/2000/svg" xmlns:xlink="http://www.w3.org/1999/xlink">
	<defs/>
	<path id="path" d="M24.9348 9.05334C24.8948 8.92947 24.8378 8.814 24.7639 8.70691C24.6899 8.59981 24.6021 8.50565 24.5004 8.42442C24.3987 8.34319 24.2874 8.27834 24.1666 8.22986C24.0458 8.1814 23.9206 8.15135 23.791 8.13976L16.5753 7.48451L13.722 0.806122C13.5116 0.316711 13.0324 0 12.5001 0C11.9678 0 11.4886 0.316757 11.2782 0.807343L8.42496 7.48456L1.20813 8.13976C1.07863 8.15161 0.953583 8.18184 0.832962 8.23042C0.712341 8.27899 0.601257 8.34389 0.499695 8.42509C0.398117 8.50629 0.310379 8.60037 0.236435 8.70734C0.162491 8.81432 0.105499 8.92964 0.0654144 9.05334C-0.0991821 9.55962 0.0528259 10.1149 0.453949 10.4649L5.90819 15.2482L4.29985 22.3328C4.18217 22.8537 4.38432 23.3922 4.81656 23.7046C5.04884 23.8725 5.32068 23.958 5.59476 23.958C5.83109 23.958 6.06548 23.8942 6.27592 23.7684L12.5001 20.0483L18.722 23.7684C19.1773 24.0423 19.7513 24.0172 20.1825 23.7046C20.2881 23.6282 20.3804 23.5382 20.4595 23.4347C20.5386 23.3311 20.6011 23.2184 20.6471 23.0964C20.693 22.9744 20.7204 22.8485 20.7293 22.7184C20.7382 22.5884 20.7281 22.4599 20.6992 22.3328L19.0909 15.2482L24.5451 10.4658C24.6432 10.3802 24.7269 10.2822 24.7962 10.1719C24.8655 10.0616 24.9175 9.94368 24.9521 9.81813C24.9868 9.69257 25.0026 9.56468 24.9997 9.43446C24.9967 9.30424 24.9751 9.17722 24.9348 9.05334Z" fill="#FFC107" fill-opacity="1.000000" fill-rule="nonzero"/>
</svg>
